<?xml version="1.0" encoding="utf-8"?>
<!-- Generator: Adobe Illustrator 26.0.3, SVG Export Plug-In . SVG Version: 6.00 Build 0)  -->
<svg version="1.1" xmlns="http://www.w3.org/2000/svg" xmlns:xlink="http://www.w3.org/1999/xlink" x="0px" y="0px"
	 viewBox="0 0 469 101" style="enable-background:new 0 0 469 101;" xml:space="preserve">
<style type="text/css">
	.st0{fill:#FFFFFF;}
	.st1{fill:#DB802D;}
</style>
<g id="Layer_1">
	<path class="st0" d="M221.2,38.5v-8.9h33.1l3.1-10.1h-48.4v30h48l3.4-11H221.2z M212.7,0l-3.8,11h48l3.4-11H212.7z M130.8,38.4
		l-3.5,11.2H81.9V0h12.3v38.4H130.8z M194.6,38.4l-3.5,11.2h-45.4V0H158v38.4H194.6z M40.6,0H26.9L0,49.6h13.9l19.7-36.7l19.7,36.7
		h14.2L40.6,0z M314,0h-13.6l-26.9,49.6h13.9L307,12.9l19.7,36.7h14.2L314,0z M408.2,16.5c0-4.5,1.5-8.3,4.5-11.6
		c3-3.3,7.1-4.9,12.2-4.9h27.4c5.2,0,9.2,1.6,12.2,4.9c3,3.2,4.5,7,4.5,11.5v16.8c0,4.3-1.5,8.1-4.5,11.4c-3,3.3-7.1,5-12.2,5h-27.4
		c-5,0-9.1-1.6-12.2-5c-3-3.3-4.5-7.1-4.5-11.5V16.5z M449.2,38.4c2.3,0,4.1-0.7,5.4-2c1.4-1.3,2.1-3.1,2.1-5.4V18.3
		c0-2.3-0.7-4.1-2.1-5.4c-1.4-1.4-3.2-2-5.4-2h-21.1c-2.2,0-4,0.7-5.4,2c-1.3,1.3-2,3.1-2.1,5.4v12.8c0,2.2,0.7,4,2.1,5.3
		c1.5,1.4,3.2,2,5.4,2H449.2z M364.2,19.9v29.7h12.3V19.9H364.2z M345.4,0l-3.3,10.8h54.2L399.6,0H345.4z M100.8,77.1
		c-2.5,0-4.4,0.8-5.9,2.4c-0.8,0.9-1.4,1.8-1.7,2.9h26.2l1.6-5.2H100.8z M110.2,86.6l-1.4,4.8h7.3V93c0,0.9-0.2,1.6-0.5,2
		c-0.3,0.4-1,0.6-1.9,0.6h-11.3c-1,0-1.9-0.3-2.6-1c-0.7-0.6-1-1.5-1-2.6v-5.4h-5.9V93c0,2.1,0.7,3.9,2.2,5.5
		c1.5,1.6,3.4,2.4,5.9,2.4h14.3c1.9,0,3.6-0.7,4.9-2.1c1.4-1.3,2-2.9,2-4.8v-7.5H110.2z M220.5,85.1c0-2.2,0.7-4,2.2-5.6
		c1.5-1.6,3.4-2.4,5.9-2.4h13.2c2.5,0,4.5,0.8,5.9,2.4c1.4,1.6,2.2,3.4,2.2,5.5v8.1c0,2.1-0.7,3.9-2.2,5.5c-1.5,1.6-3.4,2.4-5.9,2.4
		h-13.2c-2.4,0-4.4-0.8-5.9-2.4c-1.5-1.6-2.2-3.4-2.2-5.5V85.1z M240.3,95.6c1.1,0,2-0.4,2.6-1c0.7-0.6,1-1.5,1-2.6V86
		c0-1.1-0.4-2-1-2.6c-0.7-0.7-1.5-1-2.6-1h-10.2c-1.1,0-1.9,0.3-2.6,1c-0.6,0.6-1,1.5-1,2.6v6.1c0,1.1,0.3,1.9,1,2.5
		c0.7,0.7,1.6,1,2.6,1H240.3z M157.6,87.5V101h6v-7L157.6,87.5z M176.2,92.2h1.4c2.1,0,3.9-0.8,5.2-2.3c1.4-1.5,2-3.3,2-5.4
		c0-2-0.7-3.8-2-5.3c-1.3-1.5-3.1-2.2-5.3-2.2h-18.2l-1.8,5.3h19.1c0.7,0,1.2,0.2,1.7,0.7c0.4,0.5,0.6,1.1,0.6,1.8
		c0,0.7-0.2,1.3-0.7,1.8c-0.5,0.5-1,0.8-1.7,0.8h-12.2l12.4,13.5h8.1L176.2,92.2z M374,79.6c-1.5-1.6-3.4-2.4-5.7-2.4h-16.9
		l-1.8,5.3h18.1c0.8,0,1.5,0.3,2,0.9c0.5,0.6,0.8,1.2,0.8,2c0,0.8-0.3,1.5-0.8,2.1c-0.5,0.6-1.2,0.9-2,0.9h-18V101h5.9v-7.5h12.8
		c2.3,0,4.2-0.8,5.7-2.5c1.5-1.6,2.2-3.6,2.2-5.8C376.2,83.1,375.5,81.2,374,79.6z M312.2,77.1v15.9c0,2.1-0.7,3.9-2.2,5.5
		c-1.5,1.6-3.4,2.4-5.9,2.4h-10.2c-2.4,0-4.4-0.8-5.9-2.4c-1.5-1.6-2.2-3.4-2.2-5.5V77.1h6v15c0,1.1,0.3,1.9,1,2.5
		c0.7,0.7,1.6,1,2.6,1h7.1c1.1,0,1.9-0.3,2.6-1c0.7-0.6,1-1.5,1-2.5v-15H312.2z"/>
	<polygon class="st1" points="34,49.7 42.6,34.7 25.3,34.7 	"/>
	<polygon class="st1" points="307.4,49.7 316,34.7 298.7,34.7 	"/>
</g>
<g id="Layer_2">
</g>
</svg>
